<svg width="200" height="24" viewBox="0 0 200 24" fill="none" xmlns="http://www.w3.org/2000/svg">
<path d="M43.7436 18.2589C42.468 18.9434 41.1924 19.1923 39.8234 19.1923C35.6542 19.1923 32.7607 16.2988 32.7607 12.223C32.7607 8.08496 35.6543 5.25368 39.8856 5.25368C42.0946 5.25368 43.9303 6.0315 45.5171 7.71161L48.7528 4.72476C46.6371 2.26683 43.4636 0.960083 39.6367 0.960083C32.6985 0.960083 27.6582 5.65815 27.6582 12.223C27.6582 18.7878 32.6985 23.4859 39.5434 23.4859C42.6547 23.4859 45.9527 22.5214 48.3484 20.7169V11.8808H43.7436V18.2589Z" fill="white"/>
<path d="M53.0304 23.1126H68.9914V19.0056H58.0707V1.33344H53.0304V23.1126Z" fill="white"/>
<path d="M81.9903 23.4859C88.8352 23.4859 93.9066 18.7256 93.9066 12.223C93.9066 5.72038 88.8352 0.960083 81.9903 0.960083C75.1143 0.960083 70.074 5.75149 70.074 12.223C70.074 18.6945 75.1143 23.4859 81.9903 23.4859ZM81.9903 19.1923C78.1012 19.1923 75.1765 16.361 75.1765 12.223C75.1765 8.08496 78.1012 5.25368 81.9903 5.25368C85.8794 5.25368 88.804 8.08496 88.804 12.223C88.804 16.361 85.8794 19.1923 81.9903 19.1923Z" fill="white"/>
<path d="M113.687 11.7874C115.46 10.854 116.58 9.17392 116.58 6.99601C116.58 3.60469 113.78 1.33344 108.335 1.33344H97.6946V23.1126H108.958C114.682 23.1126 117.669 20.9346 117.669 17.17C117.669 14.432 116.113 12.5652 113.687 11.7874ZM107.713 5.12923C110.171 5.12923 111.509 5.96928 111.509 7.68049C111.509 9.39171 110.171 10.2629 107.713 10.2629H102.704V5.12923H107.713ZM108.584 19.3168H102.704V13.9342H108.584C111.198 13.9342 112.598 14.8054 112.598 16.641C112.598 18.5078 111.198 19.3168 108.584 19.3168Z" fill="white"/>
<path d="M137.757 23.1126H143.046L133.308 1.33344H128.33L118.623 23.1126H123.787L125.716 18.4456H135.828L137.757 23.1126ZM127.334 14.6187L130.788 6.28041L134.241 14.6187H127.334Z" fill="white"/>
<path d="M145.306 23.1126H161.267V19.0056H150.346V1.33344H145.306V23.1126Z" fill="white"/>
<path d="M172.895 23.1126H177.935V1.33344H172.895V23.1126Z" fill="white"/>
<path d="M187.615 23.1126H192.655V5.44036H199.624V1.33344H180.646V5.44036H187.615V23.1126Z" fill="white"/>
<path d="M2.06177 8.41437L0 14.2222C0.712425 12.3036 4.16982 10.69 8.98265 10.612C12.0272 10.5635 12.1892 5.06654 10.4136 4.56176C8.82798 4.11255 3.3624 4.86203 2.06177 8.41437Z" fill="white"/>
<path d="M8.41595 21.937L14.2231 24C12.3043 23.2876 10.6906 19.829 10.6137 15.0174C10.5653 11.9728 5.06785 11.8109 4.56304 13.5864C4.11261 15.172 4.86333 20.6388 8.41595 21.937Z" fill="white"/>
<path d="M21.9391 15.5854L24.0009 9.77795C23.2885 11.6968 19.8311 13.3094 15.0182 13.3875C11.9737 13.436 11.8117 18.9336 13.5873 19.4384C15.1729 19.8877 20.6385 19.1381 21.9391 15.5854Z" fill="white"/>
<path d="M15.5845 2.05812L9.77734 0C11.6961 0.718514 13.3099 4.16982 13.3867 8.98265C13.4364 12.0272 18.9326 12.1892 19.4374 10.4136C19.8878 8.82677 19.1371 3.36119 15.5845 2.05812Z" fill="white"/>
<path d="M10.1994 4.06192C10.3496 4.11445 10.4901 4.19923 10.6141 4.31198C10.875 4.02266 11.2026 3.83035 11.556 3.75914C11.1953 2.16821 10.0064 0.336675 9.24599 0.0487662C8.35232 -0.290507 6.31225 1.13687 6.22266 4.44445C7.85149 3.85511 9.4608 3.8078 10.1994 4.06192Z" fill="white"/>
<path d="M3.90344 15.0129C3.887 14.6049 3.93787 14.197 4.05454 13.8011C4.10752 13.6511 4.19209 13.5106 4.30414 13.3864C4.01536 13.1255 3.82341 12.7978 3.75234 12.4445C2.16439 12.8051 0.337636 13.994 0.0489174 14.7545C-0.291068 15.6481 1.13768 17.6859 4.44445 17.7778C4.11148 16.8826 3.92933 15.9517 3.90344 15.0129Z" fill="white"/>
<path d="M17.7787 19.5557C16.1487 20.1449 14.5405 20.1922 13.8019 19.9381C13.6518 19.8861 13.5112 19.8018 13.3872 19.6894C13.1263 19.9787 12.7987 20.171 12.4453 20.2422C12.806 21.8314 13.9949 23.6625 14.7553 23.9517C15.649 24.2896 17.6879 22.8625 17.7787 19.5557Z" fill="white"/>
<path d="M20.0976 9.44552C20.1144 9.92185 20.064 10.3982 19.9478 10.8606C19.8946 11.0356 19.8101 11.1996 19.6983 11.3448C19.987 11.6494 20.1789 12.032 20.25 12.4446C21.8363 12.0235 23.6641 10.6352 23.9528 9.75268C24.29 8.70916 22.8642 6.32435 19.5566 6.22241C19.8899 7.26582 20.072 8.35107 20.0976 9.44552Z" fill="white"/>
</svg>
