<svg width="275" height="33" viewBox="0 0 275 33" fill="none" xmlns="http://www.w3.org/2000/svg">
<path d="M60.1468 25.1062C58.3928 26.0474 56.6388 26.3896 54.7564 26.3896C49.0239 26.3896 45.0453 22.4111 45.0453 16.8068C45.0453 11.117 49.0239 7.22401 54.842 7.22401C57.8794 7.22401 60.4035 8.29352 62.5853 10.6037L67.0344 6.49674C64.1253 3.11709 59.7617 1.32031 54.4998 1.32031C44.9597 1.32031 38.0293 7.78015 38.0293 16.8068C38.0293 25.8335 44.9597 32.2933 54.3714 32.2933C58.6495 32.2933 63.1842 30.9671 66.4783 28.4859V16.3362H60.1468V25.1062Z" fill="#A35BFF"/>
<path d="M72.916 31.78H94.8624V26.1329H79.8465V1.83368H72.916V31.78Z" fill="#A35BFF"/>
<path d="M112.736 32.2933C122.148 32.2933 129.121 25.7479 129.121 16.8068C129.121 7.86571 122.148 1.32031 112.736 1.32031C103.281 1.32031 96.351 7.90849 96.351 16.8068C96.351 25.7051 103.281 32.2933 112.736 32.2933ZM112.736 26.3896C107.388 26.3896 103.367 22.4966 103.367 16.8068C103.367 11.117 107.388 7.22401 112.736 7.22401C118.083 7.22401 122.105 11.117 122.105 16.8068C122.105 22.4966 118.083 26.3896 112.736 26.3896Z" fill="#A35BFF"/>
<path d="M156.318 16.2079C158.757 14.9245 160.297 12.6143 160.297 9.61971C160.297 4.95665 156.447 1.83368 148.96 1.83368H134.329V31.78H149.816C157.687 31.78 161.794 28.7853 161.794 23.6089C161.794 19.8442 159.655 17.2774 156.318 16.2079ZM148.105 7.05289C151.484 7.05289 153.324 8.20796 153.324 10.5609C153.324 12.9138 151.484 14.1117 148.105 14.1117H141.217V7.05289H148.105ZM149.302 26.5607H141.217V19.1597H149.302C152.896 19.1597 154.821 20.3576 154.821 22.8816C154.821 25.4485 152.896 26.5607 149.302 26.5607Z" fill="#A35BFF"/>
<path d="M189.415 31.78H196.688L183.298 1.83368H176.453L163.105 31.78H170.207L172.859 25.3629H186.763L189.415 31.78ZM175.084 20.1009L179.833 8.63576L184.581 20.1009H175.084Z" fill="#A35BFF"/>
<path d="M199.795 31.78H221.741V26.1329H206.725V1.83368H199.795V31.78Z" fill="#A35BFF"/>
<path d="M237.729 31.78H244.66V1.83368H237.729V31.78Z" fill="#A35BFF"/>
<path d="M257.97 31.78H264.9V7.48069H274.483V1.83368H248.387V7.48069H257.97V31.78Z" fill="#A35BFF"/>
<path d="M2.83493 11.5697L0 19.5555C0.979585 16.9174 5.7335 14.6987 12.3511 14.5914C16.5374 14.5248 16.7601 6.96644 14.3187 6.27238C12.1385 5.6547 4.6233 6.68524 2.83493 11.5697Z" fill="#A35BFF"/>
<path d="M11.571 30.1631L19.5558 32.9997C16.9175 32.0202 14.6986 27.2646 14.5929 20.6486C14.5263 16.4623 6.96732 16.2396 6.2732 18.6811C5.65386 20.8613 6.6861 28.3781 11.571 30.1631Z" fill="#A35BFF"/>
<path d="M30.1653 21.4297L33.0002 13.4446C32.0206 16.083 27.2667 18.3004 20.6491 18.4077C16.4628 18.4743 16.2401 26.0336 18.6815 26.7277C20.8618 27.3455 28.3769 26.3148 30.1653 21.4297Z" fill="#A35BFF"/>
<path d="M21.4301 2.82991L13.4453 0C16.0836 0.987957 18.3025 5.7335 18.4082 12.3511C18.4765 16.5374 26.0338 16.7601 26.7279 14.3187C27.3472 12.1368 26.315 4.62163 21.4301 2.82991Z" fill="#A35BFF"/>
<path d="M14.0247 5.58514C14.2311 5.65737 14.4244 5.77395 14.5948 5.92898C14.9536 5.53116 15.4041 5.26674 15.89 5.16882C15.394 2.98129 13.7593 0.462929 12.7137 0.0670535C11.4849 -0.399447 8.67984 1.5632 8.55664 6.11112C10.7963 5.30078 13.0091 5.23573 14.0247 5.58514Z" fill="#A35BFF"/>
<path d="M5.36723 20.6427C5.34463 20.0817 5.41457 19.5208 5.575 18.9764C5.64783 18.7702 5.76413 18.577 5.91819 18.4062C5.52112 18.0475 5.25719 17.597 5.15946 17.1111C2.97603 17.607 0.464249 19.2417 0.0672614 20.2873C-0.400219 21.5161 1.56431 24.3181 6.11112 24.4444C5.65329 23.2135 5.40283 21.9335 5.36723 20.6427Z" fill="#A35BFF"/>
<path d="M24.4447 26.8889C22.2034 27.6991 19.9922 27.7641 18.9766 27.4148C18.7702 27.3433 18.5769 27.2274 18.4065 27.0729C18.0477 27.4706 17.5972 27.735 17.1113 27.8329C17.6073 30.018 19.242 32.5358 20.2876 32.9335C21.5164 33.398 24.3199 31.4358 24.4447 26.8889Z" fill="#A35BFF"/>
<path d="M27.6344 12.9874C27.6576 13.6424 27.5883 14.2973 27.4285 14.9331C27.3553 15.1738 27.2391 15.3993 27.0854 15.5989C27.4824 16.0178 27.7463 16.5439 27.844 17.1112C30.0252 16.5321 32.5384 14.6233 32.9354 13.4098C33.3991 11.9749 31.4386 8.69583 26.8906 8.55566C27.3488 9.99035 27.5992 11.4826 27.6344 12.9874Z" fill="#A35BFF"/>
</svg>
